DavidHadashUpright-Bold_draw_a.ufo
<glyph name="percent" format="1">
  <advance width="567"/>
  <unicode hex="0025"/>
  <outline>
    <contour>
      <point x="237" y="327" type="curve" smooth="yes"/>
      <point x="325" y="473"/>
      <point x="400" y="624"/>
      <point x="416" y="661" type="curve" smooth="yes"/>
      <point x="421" y="673"/>
      <point x="425" y="679"/>
      <point x="435" y="686" type="curve" smooth="yes"/>
      <point x="455" y="700"/>
      <point x="478" y="714"/>
      <point x="493" y="723" type="curve" smooth="yes"/>
      <point x="498" y="726"/>
      <point x="504" y="727"/>
      <point x="507" y="727" type="curve" smooth="yes"/>
      <point x="511" y="727"/>
      <point x="513" y="724"/>
      <point x="513" y="720" type="curve" smooth="yes"/>
      <point x="513" y="715"/>
      <point x="511" y="711"/>
      <point x="509" y="705" type="curve" smooth="yes"/>
      <point x="499" y="676"/>
      <point x="331" y="386"/>
      <point x="308" y="348" type="curve" smooth="yes"/>
      <point x="280" y="301"/>
      <point x="193" y="146"/>
      <point x="164" y="79" type="curve" smooth="yes"/>
      <point x="153" y="52"/>
      <point x="142" y="40"/>
      <point x="133" y="33" type="curve" smooth="yes"/>
      <point x="117" y="20"/>
      <point x="86" y="5"/>
      <point x="75" y="1" type="curve" smooth="yes"/>
      <point x="73" y="0"/>
      <point x="70" y="0"/>
      <point x="68" y="0" type="curve" smooth="yes"/>
      <point x="61" y="0"/>
      <point x="57" y="3"/>
      <point x="57" y="10" type="curve" smooth="yes"/>
      <point x="57" y="13"/>
      <point x="58" y="16"/>
      <point x="60" y="20" type="curve" smooth="yes"/>
      <point x="94" y="84"/>
      <point x="159" y="195"/>
    </contour>
    <contour>
      <point x="292" y="164" type="curve" smooth="yes"/>
      <point x="292" y="217"/>
      <point x="311" y="251"/>
      <point x="320" y="264" type="curve" smooth="yes"/>
      <point x="339" y="291"/>
      <point x="381" y="337"/>
      <point x="421" y="360" type="curve" smooth="yes"/>
      <point x="432" y="367"/>
      <point x="450" y="373"/>
      <point x="468" y="373" type="curve" smooth="yes"/>
      <point x="481" y="373"/>
      <point x="501" y="370"/>
      <point x="520" y="356" type="curve" smooth="yes"/>
      <point x="558" y="328"/>
      <point x="580" y="270"/>
      <point x="580" y="224" type="curve"/>
      <point x="580" y="157"/>
      <point x="564" y="114"/>
      <point x="543" y="82" type="curve" smooth="yes"/>
      <point x="525" y="55"/>
      <point x="475" y="0"/>
      <point x="417" y="0" type="curve" smooth="yes"/>
      <point x="326" y="0"/>
      <point x="292" y="89"/>
    </contour>
    <contour>
      <point x="482" y="168" type="curve" smooth="yes"/>
      <point x="482" y="194"/>
      <point x="481" y="212"/>
      <point x="470" y="240" type="curve" smooth="yes"/>
      <point x="460" y="265"/>
      <point x="441" y="271"/>
      <point x="421" y="271" type="curve" smooth="yes"/>
      <point x="394" y="271"/>
      <point x="389" y="233"/>
      <point x="389" y="193" type="curve" smooth="yes"/>
      <point x="389" y="149"/>
      <point x="402" y="104"/>
      <point x="438" y="104" type="curve" smooth="yes"/>
      <point x="466" y="104"/>
      <point x="482" y="124"/>
    </contour>
    <contour>
      <point x="-1" y="519" type="curve" smooth="yes"/>
      <point x="-1" y="572"/>
      <point x="18" y="606"/>
      <point x="27" y="619" type="curve" smooth="yes"/>
      <point x="46" y="646"/>
      <point x="88" y="692"/>
      <point x="128" y="715" type="curve" smooth="yes"/>
      <point x="139" y="722"/>
      <point x="157" y="728"/>
      <point x="175" y="728" type="curve" smooth="yes"/>
      <point x="188" y="728"/>
      <point x="208" y="725"/>
      <point x="227" y="711" type="curve" smooth="yes"/>
      <point x="265" y="683"/>
      <point x="287" y="625"/>
      <point x="287" y="579" type="curve" smooth="yes"/>
      <point x="287" y="512"/>
      <point x="271" y="469"/>
      <point x="250" y="437" type="curve" smooth="yes"/>
      <point x="232" y="410"/>
      <point x="182" y="355"/>
      <point x="124" y="355" type="curve" smooth="yes"/>
      <point x="33" y="355"/>
      <point x="-1" y="444"/>
    </contour>
    <contour>
      <point x="189" y="523" type="curve" smooth="yes"/>
      <point x="189" y="549"/>
      <point x="188" y="567"/>
      <point x="177" y="595" type="curve" smooth="yes"/>
      <point x="167" y="620"/>
      <point x="148" y="626"/>
      <point x="128" y="626" type="curve" smooth="yes"/>
      <point x="101" y="626"/>
      <point x="96" y="588"/>
      <point x="96" y="548" type="curve" smooth="yes"/>
      <point x="96" y="504"/>
      <point x="109" y="459"/>
      <point x="145" y="459" type="curve" smooth="yes"/>
      <point x="173" y="459"/>
      <point x="189" y="479"/>
    </contour>
  </outline>
</glyph>
<glyph name="comma" format="1">
  <advance width="372"/>
  <unicode hex="002C"/>
  <outline>
    <contour>
      <point x="98" y="-103" type="curve" smooth="yes"/>
      <point x="112" y="-64"/>
      <point x="138" y="0"/>
      <point x="146" y="42" type="curve" smooth="yes"/>
      <point x="152" y="76"/>
      <point x="154" y="106"/>
      <point x="154" y="124" type="curve" smooth="yes"/>
      <point x="154" y="134"/>
      <point x="158" y="140"/>
      <point x="163" y="147" type="curve" smooth="yes"/>
      <point x="177" y="166"/>
      <point x="223" y="209"/>
      <point x="251" y="226" type="curve" smooth="yes"/>
      <point x="258" y="230"/>
      <point x="266" y="234"/>
      <point x="275" y="234" type="curve" smooth="yes"/>
      <point x="285" y="233"/>
      <point x="300" y="201"/>
      <point x="300" y="158" type="curve" smooth="yes"/>
      <point x="300" y="104"/>
      <point x="285" y="57"/>
      <point x="242" y="-17" type="curve" smooth="yes"/>
      <point x="216" y="-61"/>
      <point x="173" y="-109"/>
      <point x="136" y="-137" type="curve" smooth="yes"/>
      <point x="124" y="-146"/>
      <point x="112" y="-150"/>
      <point x="101" y="-150" type="curve" smooth="yes"/>
      <point x="94" y="-150"/>
      <point x="88" y="-143"/>
      <point x="88" y="-136" type="curve" smooth="yes"/>
      <point x="88" y="-128"/>
      <point x="94" y="-114"/>
    </contour>
  </outline>
</glyph>
<glyph name="zero" format="1">
  <advance width="568"/>
  <unicode hex="0030"/>
  <outline>
    <contour>
      <point x="54" y="362" type="curve" smooth="yes"/>
      <point x="54" y="435"/>
      <point x="73" y="508"/>
      <point x="88" y="553" type="curve" smooth="yes"/>
      <point x="100" y="588"/>
      <point x="117" y="620"/>
      <point x="140" y="647" type="curve" smooth="yes"/>
      <point x="185" y="700"/>
      <point x="230" y="717"/>
      <point x="279" y="717" type="curve" smooth="yes"/>
      <point x="330" y="717"/>
      <point x="381" y="692"/>
      <point x="427" y="640" type="curve" smooth="yes"/>
      <point x="485" y="574"/>
      <point x="505" y="464"/>
      <point x="505" y="354" type="curve" smooth="yes"/>
      <point x="505" y="263"/>
      <point x="475" y="139"/>
      <point x="416" y="66" type="curve" smooth="yes"/>
      <point x="367" y="5"/>
      <point x="327" y="-18"/>
      <point x="274" y="-18" type="curve" smooth="yes"/>
      <point x="219" y="-18"/>
      <point x="172" y="8"/>
      <point x="130" y="61" type="curve" smooth="yes"/>
      <point x="98" y="102"/>
      <point x="54" y="212"/>
    </contour>
    <contour>
      <point x="307" y="144" type="curve" smooth="yes"/>
      <point x="328" y="144"/>
      <point x="344" y="148"/>
      <point x="354" y="166" type="curve" smooth="yes"/>
      <point x="366" y="188"/>
      <point x="372" y="237"/>
      <point x="372" y="278" type="curve" smooth="yes"/>
      <point x="372" y="322"/>
      <point x="361" y="416"/>
      <point x="351" y="457" type="curve" smooth="yes"/>
      <point x="345" y="484"/>
      <point x="330" y="521"/>
      <point x="305" y="536" type="curve" smooth="yes"/>
      <point x="299" y="541"/>
      <point x="271" y="558"/>
      <point x="236" y="558" type="curve" smooth="yes"/>
      <point x="217" y="558"/>
      <point x="200" y="545"/>
      <point x="194" y="516" type="curve" smooth="yes"/>
      <point x="186" y="482"/>
      <point x="183" y="419"/>
      <point x="183" y="392" type="curve" smooth="yes"/>
      <point x="183" y="318"/>
      <point x="193" y="235"/>
      <point x="214" y="197" type="curve" smooth="yes"/>
      <point x="235" y="158"/>
      <point x="270" y="144"/>
    </contour>
  </outline>
</glyph>
<glyph name="five" format="1">
  <advance width="568"/>
  <unicode hex="0035"/>
  <outline>
    <contour>
      <point x="136" y="152" type="curve" smooth="yes"/>
      <point x="140" y="156"/>
      <point x="144" y="160"/>
      <point x="152" y="160" type="curve" smooth="yes"/>
      <point x="157" y="160"/>
      <point x="164" y="159"/>
      <point x="172" y="156" type="curve" smooth="yes"/>
      <point x="193" y="147"/>
      <point x="234" y="133"/>
      <point x="270" y="133" type="curve" smooth="yes"/>
      <point x="316" y="133"/>
      <point x="342" y="166"/>
      <point x="342" y="201" type="curve" smooth="yes"/>
      <point x="342" y="225"/>
      <point x="332" y="256"/>
      <point x="312" y="270" type="curve" smooth="yes"/>
      <point x="295" y="282"/>
      <point x="272" y="285"/>
      <point x="233" y="285" type="curve" smooth="yes"/>
      <point x="154" y="285" type="line"/>
      <point x="131" y="285"/>
      <point x="119" y="294"/>
      <point x="115" y="319" type="curve" smooth="yes"/>
      <point x="104" y="385"/>
      <point x="103" y="436"/>
      <point x="103" y="541" type="curve" smooth="yes"/>
      <point x="103" y="586"/>
      <point x="144" y="673"/>
      <point x="188" y="711" type="curve" smooth="yes"/>
      <point x="194" y="716"/>
      <point x="197" y="718"/>
      <point x="202" y="718" type="curve" smooth="yes"/>
      <point x="212" y="718"/>
      <point x="214" y="708"/>
      <point x="216" y="703" type="curve" smooth="yes"/>
      <point x="223" y="681"/>
      <point x="231" y="676"/>
      <point x="254" y="676" type="curve" smooth="yes"/>
      <point x="466" y="676" type="line"/>
      <point x="486" y="676"/>
      <point x="495" y="670"/>
      <point x="495" y="655" type="curve" smooth="yes"/>
      <point x="495" y="620"/>
      <point x="463" y="546"/>
      <point x="446" y="519" type="curve" smooth="yes"/>
      <point x="439" y="507"/>
      <point x="433" y="504"/>
      <point x="403" y="504" type="curve" smooth="yes"/>
      <point x="267" y="504" type="line"/>
      <point x="254" y="504"/>
      <point x="249" y="500"/>
      <point x="249" y="487" type="curve" smooth="yes"/>
      <point x="249" y="472"/>
      <point x="251" y="457"/>
      <point x="251" y="443" type="curve" smooth="yes"/>
      <point x="251" y="433"/>
      <point x="255" y="431"/>
      <point x="269" y="431" type="curve" smooth="yes"/>
      <point x="310" y="431" type="line"/>
      <point x="324" y="431"/>
      <point x="388" y="422"/>
      <point x="426" y="391" type="curve" smooth="yes"/>
      <point x="461" y="362"/>
      <point x="489" y="320"/>
      <point x="489" y="256" type="curve" smooth="yes"/>
      <point x="489" y="172"/>
      <point x="434" y="88"/>
      <point x="407" y="58" type="curve" smooth="yes"/>
      <point x="353" y="-2"/>
      <point x="302" y="-18"/>
      <point x="248" y="-18" type="curve" smooth="yes"/>
      <point x="186" y="-18"/>
      <point x="122" y="5"/>
      <point x="87" y="19" type="curve" smooth="yes"/>
      <point x="72" y="25"/>
      <point x="70" y="30"/>
      <point x="70" y="35" type="curve" smooth="yes"/>
      <point x="70" y="48"/>
      <point x="114" y="129"/>
    </contour>
  </outline>
</glyph>
<glyph name="six" format="1">
  <advance width="567"/>
  <unicode hex="0036"/>
  <outline>
    <contour>
      <point x="30" y="196" type="curve" smooth="yes"/>
      <point x="30" y="273"/>
      <point x="82" y="372"/>
      <point x="130" y="457" type="curve" smooth="yes"/>
      <point x="179" y="544"/>
      <point x="218" y="596"/>
      <point x="237" y="625" type="curve" smooth="yes"/>
      <point x="250" y="643"/>
      <point x="259" y="649"/>
      <point x="271" y="657" type="curve" smooth="yes"/>
      <point x="307" y="679"/>
      <point x="379" y="717"/>
      <point x="405" y="717" type="curve" smooth="yes"/>
      <point x="420" y="717"/>
      <point x="430" y="705"/>
      <point x="430" y="696" type="curve" smooth="yes"/>
      <point x="430" y="685"/>
      <point x="422" y="676"/>
      <point x="416" y="667" type="curve" smooth="yes"/>
      <point x="376" y="606"/>
      <point x="298" y="509"/>
      <point x="256" y="432" type="curve" smooth="yes"/>
      <point x="255" y="430"/>
      <point x="254" y="429"/>
      <point x="254" y="428" type="curve" smooth="yes"/>
      <point x="254" y="426"/>
      <point x="256" y="425"/>
      <point x="258" y="425" type="curve" smooth="yes"/>
      <point x="260" y="425"/>
      <point x="262" y="426"/>
      <point x="264" y="427" type="curve" smooth="yes"/>
      <point x="272" y="432"/>
      <point x="305" y="443"/>
      <point x="337" y="443" type="curve" smooth="yes"/>
      <point x="433" y="443"/>
      <point x="501" y="349"/>
      <point x="501" y="264" type="curve" smooth="yes"/>
      <point x="501" y="188"/>
      <point x="473" y="126"/>
      <point x="422" y="70" type="curve" smooth="yes"/>
      <point x="387" y="30"/>
      <point x="327" y="-18"/>
      <point x="254" y="-18" type="curve" smooth="yes"/>
      <point x="195" y="-18"/>
      <point x="133" y="10"/>
      <point x="100" y="42" type="curve" smooth="yes"/>
      <point x="76" y="64"/>
      <point x="30" y="112"/>
    </contour>
    <contour>
      <point x="210" y="158" type="curve" smooth="yes"/>
      <point x="232" y="141"/>
      <point x="263" y="129"/>
      <point x="279" y="129" type="curve" smooth="yes"/>
      <point x="340" y="129"/>
      <point x="369" y="164"/>
      <point x="369" y="215" type="curve" smooth="yes"/>
      <point x="369" y="251"/>
      <point x="341" y="317"/>
      <point x="267" y="317" type="curve" smooth="yes"/>
      <point x="208" y="317"/>
      <point x="175" y="276"/>
      <point x="175" y="223" type="curve" smooth="yes"/>
      <point x="175" y="197"/>
      <point x="189" y="174"/>
    </contour>
  </outline>
</glyph>
<glyph name="greater" format="1">
  <advance width="568"/>
  <unicode hex="003E"/>
  <outline>
    <contour>
      <point x="500" y="364" type="line"/>
      <point x="500" y="374"/>
      <point x="497" y="376"/>
      <point x="491" y="379" type="curve"/>
      <point x="491" y="379"/>
      <point x="351" y="441"/>
      <point x="292" y="469" type="curve" smooth="yes"/>
      <point x="241" y="493"/>
      <point x="123" y="551"/>
      <point x="123" y="551" type="curve"/>
      <point x="119" y="553"/>
      <point x="115" y="554"/>
      <point x="111" y="554" type="curve" smooth="yes"/>
      <point x="106" y="554"/>
      <point x="102" y="552"/>
      <point x="97" y="542" type="curve" smooth="yes"/>
      <point x="72" y="489" type="line" smooth="yes"/>
      <point x="71" y="486"/>
      <point x="69" y="483"/>
      <point x="69" y="480" type="curve" smooth="yes"/>
      <point x="69" y="475"/>
      <point x="72" y="472"/>
      <point x="80" y="469" type="curve"/>
      <point x="80" y="469"/>
      <point x="206" y="414"/>
      <point x="248" y="394" type="curve" smooth="yes"/>
      <point x="382" y="330" type="line"/>
      <point x="248" y="266" type="line" smooth="yes"/>
      <point x="206" y="246"/>
      <point x="80" y="191"/>
      <point x="80" y="191" type="curve"/>
      <point x="72" y="188"/>
      <point x="70" y="184"/>
      <point x="70" y="179" type="curve" smooth="yes"/>
      <point x="70" y="176"/>
      <point x="71" y="174"/>
      <point x="72" y="171" type="curve" smooth="yes"/>
      <point x="100" y="113" type="line" smooth="yes"/>
      <point x="103" y="107"/>
      <point x="106" y="105"/>
      <point x="110" y="105" type="curve" smooth="yes"/>
      <point x="113" y="105"/>
      <point x="119" y="107"/>
      <point x="123" y="109" type="curve"/>
      <point x="123" y="109"/>
      <point x="241" y="167"/>
      <point x="292" y="191" type="curve" smooth="yes"/>
      <point x="351" y="219"/>
      <point x="491" y="281"/>
      <point x="491" y="281" type="curve"/>
      <point x="497" y="284"/>
      <point x="500" y="288"/>
      <point x="500" y="301" type="curve" smooth="yes"/>
    </contour>
  </outline>
</glyph>
<glyph name="question" format="1">
  <advance width="408"/>
  <unicode hex="003F"/>
  <outline>
    <contour>
      <point x="135" y="323" type="curve" smooth="yes"/>
      <point x="135" y="347"/>
      <point x="145" y="379"/>
      <point x="159" y="404" type="curve" smooth="yes"/>
      <point x="168" y="421"/>
      <point x="188" y="451"/>
      <point x="188" y="485" type="curve" smooth="yes"/>
      <point x="188" y="543"/>
      <point x="88" y="564"/>
      <point x="66" y="573" type="curve" smooth="yes"/>
      <point x="62" y="575"/>
      <point x="60" y="578"/>
      <point x="60" y="582" type="curve" smooth="yes"/>
      <point x="60" y="587"/>
      <point x="61" y="593"/>
      <point x="65" y="599" type="curve" smooth="yes"/>
      <point x="84" y="630"/>
      <point x="114" y="678"/>
      <point x="160" y="716" type="curve" smooth="yes"/>
      <point x="166" y="721"/>
      <point x="173" y="725"/>
      <point x="179" y="725" type="curve" smooth="yes"/>
      <point x="184" y="725"/>
      <point x="186" y="724"/>
      <point x="194" y="722" type="curve" smooth="yes"/>
      <point x="254" y="707"/>
      <point x="340" y="659"/>
      <point x="340" y="578" type="curve" smooth="yes"/>
      <point x="340" y="528"/>
      <point x="312" y="492"/>
      <point x="298" y="474" type="curve" smooth="yes"/>
      <point x="271" y="440"/>
      <point x="250" y="407"/>
      <point x="250" y="384" type="curve" smooth="yes"/>
      <point x="250" y="371"/>
      <point x="259" y="362"/>
      <point x="269" y="352" type="curve" smooth="yes"/>
      <point x="275" y="346"/>
      <point x="278" y="344"/>
      <point x="278" y="336" type="curve" smooth="yes"/>
      <point x="278" y="331"/>
      <point x="274" y="327"/>
      <point x="273" y="324" type="curve" smooth="yes"/>
      <point x="262" y="304"/>
      <point x="229" y="265"/>
      <point x="216" y="253" type="curve" smooth="yes"/>
      <point x="210" y="248"/>
      <point x="205" y="243"/>
      <point x="198" y="243" type="curve" smooth="yes"/>
      <point x="190" y="243"/>
      <point x="182" y="247"/>
      <point x="179" y="250" type="curve" smooth="yes"/>
      <point x="153" y="272"/>
      <point x="135" y="296"/>
    </contour>
    <contour>
      <point x="112" y="75" type="curve" smooth="yes"/>
      <point x="109" y="79"/>
      <point x="106" y="84"/>
      <point x="106" y="90" type="curve" smooth="yes"/>
      <point x="106" y="95"/>
      <point x="107" y="101"/>
      <point x="113" y="108" type="curve" smooth="yes"/>
      <point x="126" y="124"/>
      <point x="177" y="180"/>
      <point x="190" y="192" type="curve" smooth="yes"/>
      <point x="195" y="197"/>
      <point x="202" y="202"/>
      <point x="209" y="202" type="curve" smooth="yes"/>
      <point x="215" y="202"/>
      <point x="218" y="199"/>
      <point x="224" y="193" type="curve" smooth="yes"/>
      <point x="252" y="164"/>
      <point x="286" y="137"/>
      <point x="316" y="119" type="curve" smooth="yes"/>
      <point x="323" y="115"/>
      <point x="327" y="109"/>
      <point x="327" y="101" type="curve" smooth="yes"/>
      <point x="327" y="95"/>
      <point x="323" y="86"/>
      <point x="320" y="82" type="curve" smooth="yes"/>
      <point x="294" y="44"/>
      <point x="271" y="17"/>
      <point x="245" y="-8" type="curve" smooth="yes"/>
      <point x="241" y="-12"/>
      <point x="235" y="-16"/>
      <point x="229" y="-16" type="curve" smooth="yes"/>
      <point x="223" y="-16"/>
      <point x="218" y="-15"/>
      <point x="214" y="-12" type="curve" smooth="yes"/>
      <point x="173" y="9"/>
      <point x="137" y="41"/>
    </contour>
  </outline>
</glyph>
<glyph name="verticalbar" format="1">
  <advance width="326"/>
  <unicode hex="007C"/>
  <outline>
    <contour>
      <point x="124" y="-13" type="curve" smooth="yes"/>
      <point x="124" y="-21"/>
      <point x="126" y="-30"/>
      <point x="138" y="-30" type="curve" smooth="yes"/>
      <point x="187" y="-30" type="line" smooth="yes"/>
      <point x="198" y="-30"/>
      <point x="202" y="-22"/>
      <point x="202" y="-14" type="curve" smooth="yes"/>
      <point x="206" y="165"/>
      <point x="208" y="214"/>
      <point x="208" y="278" type="curve" smooth="yes"/>
      <point x="208" y="360"/>
      <point x="205" y="436"/>
      <point x="202" y="566" type="curve" smooth="yes"/>
      <point x="202" y="574"/>
      <point x="198" y="582"/>
      <point x="187" y="582" type="curve" smooth="yes"/>
      <point x="138" y="582" type="line" smooth="yes"/>
      <point x="126" y="582"/>
      <point x="124" y="573"/>
      <point x="124" y="565" type="curve" smooth="yes"/>
      <point x="120" y="438"/>
      <point x="117" y="360"/>
      <point x="117" y="278" type="curve" smooth="yes"/>
      <point x="117" y="214"/>
      <point x="121" y="141"/>
    </contour>
  </outline>
</glyph>
<glyph name="logicalnot" format="1">
  <advance width="544"/>
  <unicode hex="00AC"/>
  <outline>
    <contour>
      <point x="461" y="356" type="curve" smooth="yes"/>
      <point x="389" y="357"/>
      <point x="76" y="360"/>
      <point x="76" y="360" type="curve"/>
      <point x="63" y="360"/>
      <point x="60" y="354"/>
      <point x="60" y="344" type="curve" smooth="yes"/>
      <point x="60" y="286" type="line" smooth="yes"/>
      <point x="60" y="277"/>
      <point x="63" y="271"/>
      <point x="76" y="271" type="curve" smooth="yes"/>
      <point x="76" y="271"/>
      <point x="322" y="275"/>
      <point x="392" y="276" type="curve"/>
      <point x="391" y="203"/>
      <point x="389" y="111"/>
      <point x="389" y="111" type="curve"/>
      <point x="389" y="98"/>
      <point x="395" y="95"/>
      <point x="405" y="95" type="curve" smooth="yes"/>
      <point x="464" y="95" type="line" smooth="yes"/>
      <point x="473" y="95"/>
      <point x="479" y="98"/>
      <point x="479" y="111" type="curve" smooth="yes"/>
      <point x="479" y="111"/>
      <point x="476" y="269"/>
      <point x="475" y="340" type="curve"/>
      <point x="475" y="354"/>
      <point x="470" y="356"/>
    </contour>
  </outline>
</glyph>
<glyph name="degree" format="1">
  <advance width="376"/>
  <unicode hex="00B0"/>
  <outline>
    <contour>
      <point x="41" y="575" type="curve" smooth="yes"/>
      <point x="41" y="481"/>
      <point x="102" y="437"/>
      <point x="181" y="437" type="curve" smooth="yes"/>
      <point x="260" y="437"/>
      <point x="309" y="491"/>
      <point x="325" y="528" type="curve" smooth="yes"/>
      <point x="331" y="540"/>
      <point x="335" y="558"/>
      <point x="335" y="575" type="curve" smooth="yes"/>
      <point x="335" y="638"/>
      <point x="299" y="714"/>
      <point x="185" y="714" type="curve" smooth="yes"/>
      <point x="96" y="714"/>
      <point x="41" y="642"/>
    </contour>
    <contour>
      <point x="200" y="518" type="curve" smooth="yes"/>
      <point x="150" y="518"/>
      <point x="120" y="535"/>
      <point x="120" y="579" type="curve" smooth="yes"/>
      <point x="120" y="594"/>
      <point x="121" y="599"/>
      <point x="123" y="605" type="curve" smooth="yes"/>
      <point x="128" y="620"/>
      <point x="144" y="631"/>
      <point x="170" y="631" type="curve" smooth="yes"/>
      <point x="236" y="631"/>
      <point x="251" y="598"/>
      <point x="251" y="566" type="curve" smooth="yes"/>
      <point x="251" y="522"/>
      <point x="221" y="518"/>
    </contour>
  </outline>
</glyph>
<glyph name="paragraph" format="1">
  <advance width="615"/>
  <unicode hex="00B6"/>
  <outline>
    <contour>
      <point x="290" y="251" type="curve" smooth="yes"/>
      <point x="290" y="239"/>
      <point x="283" y="236"/>
      <point x="279" y="236" type="curve" smooth="yes"/>
      <point x="272" y="236"/>
      <point x="256" y="237"/>
      <point x="248" y="238" type="curve" smooth="yes"/>
      <point x="193" y="245"/>
      <point x="166" y="274"/>
      <point x="166" y="316" type="curve" smooth="yes"/>
      <point x="166" y="356"/>
      <point x="188" y="387"/>
      <point x="249" y="387" type="curve" smooth="yes"/>
      <point x="274" y="387"/>
      <point x="283" y="378"/>
      <point x="284" y="358" type="curve" smooth="yes"/>
      <point x="285" y="337"/>
      <point x="290" y="273"/>
    </contour>
    <contour>
      <point x="383" y="384" type="curve" smooth="yes"/>
      <point x="402" y="384"/>
      <point x="411" y="376"/>
      <point x="411" y="353" type="curve" smooth="yes"/>
      <point x="415" y="277"/>
      <point x="424" y="-2"/>
      <point x="426" y="-58" type="curve" smooth="yes"/>
      <point x="426" y="-66"/>
      <point x="430" y="-71"/>
      <point x="435" y="-71" type="curve" smooth="yes"/>
      <point x="439" y="-71"/>
      <point x="446" y="-68"/>
      <point x="453" y="-60" type="curve" smooth="yes"/>
      <point x="463" y="-49"/>
      <point x="478" y="-26"/>
      <point x="485" y="-10" type="curve" smooth="yes"/>
      <point x="491" y="3"/>
      <point x="492" y="16"/>
      <point x="492" y="31" type="curve" smooth="yes"/>
      <point x="492" y="99"/>
      <point x="486" y="233"/>
      <point x="486" y="347" type="curve" smooth="yes"/>
      <point x="486" y="374"/>
      <point x="488" y="387"/>
      <point x="512" y="387" type="curve" smooth="yes"/>
      <point x="537" y="387"/>
      <point x="546" y="397"/>
      <point x="558" y="420" type="curve" smooth="yes"/>
      <point x="569" y="441"/>
      <point x="577" y="468"/>
      <point x="587" y="497" type="curve" smooth="yes"/>
      <point x="592" y="511"/>
      <point x="595" y="527"/>
      <point x="595" y="533" type="curve" smooth="yes"/>
      <point x="595" y="548"/>
      <point x="588" y="552"/>
      <point x="575" y="552" type="curve" smooth="yes"/>
      <point x="265" y="552" type="line" smooth="yes"/>
      <point x="99" y="552"/>
      <point x="36" y="461"/>
      <point x="36" y="374" type="curve" smooth="yes"/>
      <point x="36" y="330"/>
      <point x="46" y="284"/>
      <point x="74" y="248" type="curve" smooth="yes"/>
      <point x="128" y="178"/>
      <point x="222" y="159"/>
      <point x="280" y="154" type="curve" smooth="yes"/>
      <point x="287" y="153"/>
      <point x="292" y="149"/>
      <point x="292" y="143" type="curve" smooth="yes"/>
      <point x="296" y="62"/>
      <point x="297" y="-2"/>
      <point x="299" y="-62" type="curve" smooth="yes"/>
      <point x="299" y="-70"/>
      <point x="300" y="-75"/>
      <point x="309" y="-75" type="curve" smooth="yes"/>
      <point x="316" y="-75"/>
      <point x="322" y="-70"/>
      <point x="329" y="-62" type="curve" smooth="yes"/>
      <point x="342" y="-47"/>
      <point x="350" y="-29"/>
      <point x="358" y="-12" type="curve" smooth="yes"/>
      <point x="368" y="9"/>
      <point x="368" y="23"/>
      <point x="368" y="46" type="curve" smooth="yes"/>
      <point x="368" y="115"/>
      <point x="359" y="288"/>
      <point x="357" y="354" type="curve" smooth="yes"/>
      <point x="356" y="379"/>
      <point x="365" y="384"/>
    </contour>
  </outline>
</glyph>
<glyph name="guillemotright" format="1">
  <advance width="400"/>
  <unicode hex="00BB"/>
  <outline>
    <contour>
      <point x="332" y="178" type="curve" smooth="yes"/>
      <point x="348" y="198"/>
      <point x="381" y="247"/>
      <point x="393" y="272" type="curve" smooth="yes"/>
      <point x="395" y="276"/>
      <point x="397" y="282"/>
      <point x="397" y="287" type="curve" smooth="yes"/>
      <point x="397" y="293"/>
      <point x="395" y="299"/>
      <point x="388" y="310" type="curve" smooth="yes"/>
      <point x="373" y="335"/>
      <point x="318" y="395"/>
      <point x="291" y="418" type="curve" smooth="yes"/>
      <point x="286" y="422"/>
      <point x="283" y="423"/>
      <point x="281" y="423" type="curve" smooth="yes"/>
      <point x="278" y="423"/>
      <point x="274" y="421"/>
      <point x="271" y="418" type="curve" smooth="yes"/>
      <point x="254" y="399"/>
      <point x="228" y="360"/>
      <point x="221" y="348" type="curve"/>
      <point x="221" y="348"/>
      <point x="215" y="337"/>
      <point x="215" y="332" type="curve" smooth="yes"/>
      <point x="215" y="329"/>
      <point x="216" y="324"/>
      <point x="219" y="321" type="curve" smooth="yes"/>
      <point x="267" y="267" type="line" smooth="yes"/>
      <point x="270" y="264"/>
      <point x="272" y="258"/>
      <point x="272" y="255" type="curve" smooth="yes"/>
      <point x="272" y="252"/>
      <point x="272" y="248"/>
      <point x="269" y="243" type="curve" smooth="yes"/>
      <point x="257" y="219"/>
      <point x="235" y="166"/>
      <point x="223" y="141" type="curve" smooth="yes"/>
      <point x="221" y="137"/>
      <point x="220" y="133"/>
      <point x="220" y="130" type="curve" smooth="yes"/>
      <point x="220" y="126"/>
      <point x="224" y="123"/>
      <point x="229" y="123" type="curve" smooth="yes"/>
      <point x="231" y="123"/>
      <point x="234" y="123"/>
      <point x="238" y="125" type="curve" smooth="yes"/>
      <point x="246" y="128"/>
      <point x="296" y="152"/>
      <point x="301" y="155" type="curve" smooth="yes"/>
      <point x="308" y="159"/>
      <point x="323" y="166"/>
    </contour>
    <contour>
      <point x="126" y="178" type="curve" smooth="yes"/>
      <point x="142" y="198"/>
      <point x="175" y="247"/>
      <point x="187" y="272" type="curve" smooth="yes"/>
      <point x="189" y="276"/>
      <point x="191" y="282"/>
      <point x="191" y="287" type="curve" smooth="yes"/>
      <point x="191" y="293"/>
      <point x="189" y="299"/>
      <point x="182" y="310" type="curve" smooth="yes"/>
      <point x="167" y="335"/>
      <point x="112" y="395"/>
      <point x="85" y="418" type="curve" smooth="yes"/>
      <point x="80" y="422"/>
      <point x="77" y="423"/>
      <point x="75" y="423" type="curve" smooth="yes"/>
      <point x="72" y="423"/>
      <point x="68" y="421"/>
      <point x="65" y="418" type="curve" smooth="yes"/>
      <point x="48" y="399"/>
      <point x="22" y="360"/>
      <point x="15" y="348" type="curve"/>
      <point x="15" y="348"/>
      <point x="9" y="337"/>
      <point x="9" y="332" type="curve" smooth="yes"/>
      <point x="9" y="329"/>
      <point x="10" y="324"/>
      <point x="13" y="321" type="curve" smooth="yes"/>
      <point x="61" y="267" type="line" smooth="yes"/>
      <point x="64" y="264"/>
      <point x="66" y="258"/>
      <point x="66" y="255" type="curve" smooth="yes"/>
      <point x="66" y="252"/>
      <point x="66" y="248"/>
      <point x="63" y="243" type="curve" smooth="yes"/>
      <point x="51" y="219"/>
      <point x="29" y="166"/>
      <point x="17" y="141" type="curve" smooth="yes"/>
      <point x="15" y="137"/>
      <point x="14" y="133"/>
      <point x="14" y="130" type="curve" smooth="yes"/>
      <point x="14" y="126"/>
      <point x="18" y="123"/>
      <point x="23" y="123" type="curve" smooth="yes"/>
      <point x="25" y="123"/>
      <point x="28" y="123"/>
      <point x="32" y="125" type="curve" smooth="yes"/>
      <point x="40" y="128"/>
      <point x="90" y="152"/>
      <point x="95" y="155" type="curve" smooth="yes"/>
      <point x="102" y="159"/>
      <point x="117" y="166"/>
    </contour>
  </outline>
</glyph>
<glyph name="uni0593" format="1">
  <advance width="0"/>
  <unicode hex="0593"/>
  <outline>
    <contour>
      <point x="87" y="696" type="curve" smooth="yes"/>
      <point x="82" y="698"/>
      <point x="78" y="701"/>
      <point x="78" y="707" type="curve" smooth="yes"/>
      <point x="78" y="739" type="line" smooth="yes"/>
      <point x="78" y="744"/>
      <point x="79" y="747"/>
      <point x="83" y="749" type="curve" smooth="yes"/>
      <point x="102" y="759"/>
      <point x="127" y="765"/>
      <point x="154" y="777" type="curve"/>
      <point x="131" y="787"/>
      <point x="101" y="797"/>
      <point x="85" y="805" type="curve" smooth="yes"/>
      <point x="82" y="806"/>
      <point x="78" y="810"/>
      <point x="78" y="816" type="curve" smooth="yes"/>
      <point x="78" y="846" type="line" smooth="yes"/>
      <point x="78" y="849"/>
      <point x="78" y="854"/>
      <point x="84" y="857" type="curve" smooth="yes"/>
      <point x="125" y="874"/>
      <point x="154" y="886"/>
      <point x="192" y="900" type="curve" smooth="yes"/>
      <point x="195" y="901"/>
      <point x="198" y="903"/>
      <point x="201" y="903" type="curve" smooth="yes"/>
      <point x="205" y="903"/>
      <point x="208" y="899"/>
      <point x="209" y="896" type="curve" smooth="yes"/>
      <point x="218" y="875" type="line" smooth="yes"/>
      <point x="219" y="873"/>
      <point x="220" y="869"/>
      <point x="220" y="867" type="curve" smooth="yes"/>
      <point x="220" y="862"/>
      <point x="216" y="859"/>
      <point x="212" y="857" type="curve" smooth="yes"/>
      <point x="191" y="848"/>
      <point x="163" y="837"/>
      <point x="145" y="831" type="curve"/>
      <point x="169" y="821"/>
      <point x="189" y="815"/>
      <point x="215" y="803" type="curve" smooth="yes"/>
      <point x="220" y="801"/>
      <point x="221" y="796"/>
      <point x="221" y="792" type="curve" smooth="yes"/>
      <point x="221" y="764" type="line" smooth="yes"/>
      <point x="221" y="757"/>
      <point x="217" y="752"/>
      <point x="212" y="750" type="curve" smooth="yes"/>
      <point x="193" y="741"/>
      <point x="171" y="734"/>
      <point x="145" y="724" type="curve"/>
      <point x="168" y="714"/>
      <point x="192" y="707"/>
      <point x="213" y="698" type="curve" smooth="yes"/>
      <point x="216" y="696"/>
      <point x="221" y="694"/>
      <point x="221" y="690" type="curve"/>
      <point x="210" y="659" type="line" smooth="yes"/>
      <point x="209" y="655"/>
      <point x="206" y="654"/>
      <point x="203" y="654" type="curve" smooth="yes"/>
      <point x="200" y="654"/>
      <point x="195" y="655"/>
      <point x="191" y="656" type="curve" smooth="yes"/>
      <point x="158" y="665"/>
      <point x="115" y="682"/>
    </contour>
  </outline>
</glyph>
<glyph name="uni0594" format="1">
  <advance width="0"/>
  <unicode hex="0594"/>
  <outline>
    <contour>
      <point x="192" y="842" type="curve" smooth="yes"/>
      <point x="192" y="819"/>
      <point x="174" y="801"/>
      <point x="151" y="801" type="curve" smooth="yes"/>
      <point x="129" y="801"/>
      <point x="111" y="819"/>
      <point x="111" y="842" type="curve" smooth="yes"/>
      <point x="111" y="864"/>
      <point x="129" y="882"/>
      <point x="151" y="882" type="curve" smooth="yes"/>
      <point x="174" y="882"/>
      <point x="192" y="864"/>
    </contour>
    <contour>
      <point x="192" y="718" type="curve" smooth="yes"/>
      <point x="192" y="695"/>
      <point x="174" y="677"/>
      <point x="151" y="677" type="curve" smooth="yes"/>
      <point x="129" y="677"/>
      <point x="111" y="695"/>
      <point x="111" y="718" type="curve" smooth="yes"/>
      <point x="111" y="740"/>
      <point x="129" y="758"/>
      <point x="151" y="758" type="curve" smooth="yes"/>
      <point x="174" y="758"/>
      <point x="192" y="740"/>
    </contour>
  </outline>
</glyph>
<glyph name="uni05AD" format="1">
  <advance width="0"/>
  <unicode hex="05AD"/>
  <outline>
    <contour>
      <point x="180" y="-294" type="curve" smooth="yes"/>
      <point x="91" y="-259"/>
      <point x="73" y="-183"/>
      <point x="73" y="-90" type="curve" smooth="yes"/>
      <point x="73" y="-78"/>
      <point x="79" y="-75"/>
      <point x="88" y="-75" type="curve" smooth="yes"/>
      <point x="112" y="-75" type="line" smooth="yes"/>
      <point x="121" y="-75"/>
      <point x="126" y="-78"/>
      <point x="126" y="-90" type="curve" smooth="yes"/>
      <point x="126" y="-173"/>
      <point x="144" y="-215"/>
      <point x="207" y="-243" type="curve" smooth="yes"/>
      <point x="213" y="-246"/>
      <point x="216" y="-249"/>
      <point x="216" y="-253" type="curve" smooth="yes"/>
      <point x="216" y="-256"/>
      <point x="214" y="-261"/>
      <point x="212" y="-264" type="curve"/>
      <point x="202" y="-289" type="line"/>
      <point x="199" y="-294"/>
      <point x="195" y="-297"/>
      <point x="190" y="-297" type="curve" smooth="yes"/>
      <point x="187" y="-297"/>
      <point x="184" y="-296"/>
    </contour>
  </outline>
</glyph>
<glyph name="uni05AE" format="1">
  <advance width="0"/>
  <unicode hex="05AE"/>
  <outline>
    <contour>
      <point x="176" y="787" type="curve" smooth="yes"/>
      <point x="193" y="767"/>
      <point x="196" y="761"/>
      <point x="214" y="741" type="curve" smooth="yes"/>
      <point x="228" y="726"/>
      <point x="249" y="713"/>
      <point x="273" y="713" type="curve" smooth="yes"/>
      <point x="321" y="713"/>
      <point x="354" y="753"/>
      <point x="354" y="795" type="curve" smooth="yes"/>
      <point x="354" y="819"/>
      <point x="346" y="846"/>
      <point x="312" y="866" type="curve" smooth="yes"/>
      <point x="307" y="869"/>
      <point x="301" y="872"/>
      <point x="296" y="872" type="curve" smooth="yes"/>
      <point x="291" y="872"/>
      <point x="290" y="870"/>
      <point x="288" y="868" type="curve" smooth="yes"/>
      <point x="272" y="848" type="line"/>
      <point x="270" y="844"/>
      <point x="269" y="842"/>
      <point x="269" y="838" type="curve" smooth="yes"/>
      <point x="269" y="835"/>
      <point x="272" y="831"/>
      <point x="275" y="829" type="curve" smooth="yes"/>
      <point x="295" y="819"/>
      <point x="302" y="808"/>
      <point x="302" y="791" type="curve" smooth="yes"/>
      <point x="302" y="775"/>
      <point x="290" y="764"/>
      <point x="275" y="764" type="curve" smooth="yes"/>
      <point x="257" y="764"/>
      <point x="247" y="776"/>
      <point x="237" y="788" type="curve" smooth="yes"/>
      <point x="219" y="810"/>
      <point x="215" y="816"/>
      <point x="197" y="837" type="curve" smooth="yes"/>
      <point x="182" y="854"/>
      <point x="160" y="867"/>
      <point x="138" y="867" type="curve" smooth="yes"/>
      <point x="90" y="867"/>
      <point x="57" y="827"/>
      <point x="57" y="785" type="curve" smooth="yes"/>
      <point x="57" y="761"/>
      <point x="65" y="734"/>
      <point x="99" y="714" type="curve" smooth="yes"/>
      <point x="104" y="711"/>
      <point x="110" y="708"/>
      <point x="115" y="708" type="curve" smooth="yes"/>
      <point x="120" y="708"/>
      <point x="121" y="710"/>
      <point x="123" y="712" type="curve" smooth="yes"/>
      <point x="139" y="732" type="line"/>
      <point x="141" y="736"/>
      <point x="142" y="738"/>
      <point x="142" y="742" type="curve" smooth="yes"/>
      <point x="142" y="745"/>
      <point x="139" y="749"/>
      <point x="136" y="751" type="curve" smooth="yes"/>
      <point x="116" y="761"/>
      <point x="109" y="772"/>
      <point x="109" y="789" type="curve" smooth="yes"/>
      <point x="109" y="805"/>
      <point x="121" y="816"/>
      <point x="136" y="816" type="curve" smooth="yes"/>
      <point x="154" y="816"/>
      <point x="160" y="805"/>
    </contour>
  </outline>
</glyph>
<glyph name="uni05AF" format="1">
  <advance width="0"/>
  <unicode hex="05AF"/>
  <outline>
    <contour>
      <point x="124" y="804" type="curve" smooth="yes"/>
      <point x="124" y="744"/>
      <point x="171" y="697"/>
      <point x="231" y="697" type="curve" smooth="yes"/>
      <point x="291" y="697"/>
      <point x="339" y="744"/>
      <point x="339" y="804" type="curve" smooth="yes"/>
      <point x="339" y="864"/>
      <point x="291" y="912"/>
      <point x="231" y="912" type="curve" smooth="yes"/>
      <point x="171" y="912"/>
      <point x="124" y="864"/>
    </contour>
    <contour>
      <point x="175" y="804" type="curve" smooth="yes"/>
      <point x="175" y="835"/>
      <point x="200" y="861"/>
      <point x="231" y="861" type="curve" smooth="yes"/>
      <point x="262" y="861"/>
      <point x="288" y="835"/>
      <point x="288" y="804" type="curve" smooth="yes"/>
      <point x="288" y="773"/>
      <point x="262" y="748"/>
      <point x="231" y="748" type="curve" smooth="yes"/>
      <point x="200" y="748"/>
      <point x="175" y="773"/>
    </contour>
  </outline>
</glyph>
<glyph name="hethebrew" format="1">
  <advance width="726"/>
  <unicode hex="05D7"/>
  <outline>
    <contour>
      <point x="93" y="423" type="curve" smooth="yes"/>
      <point x="92" y="428"/>
      <point x="91" y="432"/>
      <point x="91" y="436" type="curve" smooth="yes"/>
      <point x="91" y="440"/>
      <point x="93" y="444"/>
      <point x="94" y="447" type="curve" smooth="yes"/>
      <point x="110" y="483"/>
      <point x="155" y="552"/>
      <point x="193" y="594" type="curve" smooth="yes"/>
      <point x="197" y="599"/>
      <point x="201" y="603"/>
      <point x="208" y="603" type="curve" smooth="yes"/>
      <point x="220" y="603"/>
      <point x="224" y="594"/>
      <point x="229" y="574" type="curve" smooth="yes"/>
      <point x="233" y="556"/>
      <point x="246" y="553"/>
      <point x="264" y="553" type="curve" smooth="yes"/>
      <point x="417" y="553" type="line" smooth="yes"/>
      <point x="548" y="553"/>
      <point x="634" y="446"/>
      <point x="644" y="313" type="curve" smooth="yes"/>
      <point x="650" y="233"/>
      <point x="650" y="188"/>
      <point x="650" y="128" type="curve" smooth="yes"/>
      <point x="650" y="112"/>
      <point x="649" y="102"/>
      <point x="645" y="93" type="curve" smooth="yes"/>
      <point x="633" y="59"/>
      <point x="594" y="3"/>
      <point x="575" y="-18" type="curve" smooth="yes"/>
      <point x="570" y="-24"/>
      <point x="564" y="-26"/>
      <point x="557" y="-26" type="curve" smooth="yes"/>
      <point x="550" y="-26"/>
      <point x="545" y="-15"/>
      <point x="544" y="2" type="curve" smooth="yes"/>
      <point x="541" y="39"/>
      <point x="533" y="190"/>
      <point x="522" y="256" type="curve" smooth="yes"/>
      <point x="511" y="325"/>
      <point x="449" y="385"/>
      <point x="374" y="385" type="curve" smooth="yes"/>
      <point x="257" y="385" type="line"/>
      <point x="245" y="385"/>
      <point x="238" y="378"/>
      <point x="238" y="367" type="curve" smooth="yes"/>
      <point x="238" y="295"/>
      <point x="245" y="225"/>
      <point x="245" y="156" type="curve" smooth="yes"/>
      <point x="245" y="135"/>
      <point x="245" y="102"/>
      <point x="238" y="90" type="curve" smooth="yes"/>
      <point x="221" y="56"/>
      <point x="188" y="-4"/>
      <point x="160" y="-22" type="curve" smooth="yes"/>
      <point x="156" y="-24"/>
      <point x="153" y="-25"/>
      <point x="150" y="-25" type="curve" smooth="yes"/>
      <point x="143" y="-25"/>
      <point x="139" y="-19"/>
      <point x="139" y="-12" type="curve" smooth="yes"/>
      <point x="128" y="138"/>
      <point x="125" y="284"/>
    </contour>
  </outline>
</glyph>
<glyph name="nunhebrew" format="1">
  <advance width="407"/>
  <unicode hex="05E0"/>
  <outline>
    <contour>
      <point x="76" y="151" type="curve" smooth="yes"/>
      <point x="83" y="164"/>
      <point x="92" y="167"/>
      <point x="101" y="167" type="curve" smooth="yes"/>
      <point x="215" y="167" type="line"/>
      <point x="224" y="167"/>
      <point x="232" y="171"/>
      <point x="232" y="187" type="curve" smooth="yes"/>
      <point x="232" y="242"/>
      <point x="227" y="265"/>
      <point x="221" y="289" type="curve" smooth="yes"/>
      <point x="214" y="317"/>
      <point x="207" y="334"/>
      <point x="194" y="351" type="curve" smooth="yes"/>
      <point x="175" y="377"/>
      <point x="131" y="419"/>
      <point x="71" y="446" type="curve" smooth="yes"/>
      <point x="62" y="450"/>
      <point x="59" y="456"/>
      <point x="59" y="462" type="curve" smooth="yes"/>
      <point x="59" y="467"/>
      <point x="61" y="472"/>
      <point x="64" y="477" type="curve" smooth="yes"/>
      <point x="85" y="511"/>
      <point x="116" y="564"/>
      <point x="146" y="594" type="curve" smooth="yes"/>
      <point x="152" y="600"/>
      <point x="155" y="603"/>
      <point x="162" y="603" type="curve" smooth="yes"/>
      <point x="167" y="603"/>
      <point x="174" y="599"/>
      <point x="182" y="594" type="curve" smooth="yes"/>
      <point x="217" y="573"/>
      <point x="247" y="548"/>
      <point x="270" y="524" type="curve" smooth="yes"/>
      <point x="293" y="500"/>
      <point x="316" y="452"/>
      <point x="326" y="405" type="curve" smooth="yes"/>
      <point x="336" y="354"/>
      <point x="341" y="311"/>
      <point x="341" y="267" type="curve" smooth="yes"/>
      <point x="341" y="228"/>
      <point x="338" y="178"/>
      <point x="327" y="138" type="curve" smooth="yes"/>
      <point x="317" y="101"/>
      <point x="301" y="52"/>
      <point x="286" y="24" type="curve" smooth="yes"/>
      <point x="279" y="10"/>
      <point x="268" y="0"/>
      <point x="255" y="0" type="curve" smooth="yes"/>
      <point x="42" y="0" type="line"/>
      <point x="32" y="0"/>
      <point x="27" y="6"/>
      <point x="27" y="13" type="curve" smooth="yes"/>
      <point x="27" y="24"/>
      <point x="61" y="122"/>
    </contour>
  </outline>
</glyph>
<glyph name="finalpehebrew" format="1">
  <advance width="567"/>
  <unicode hex="05E3"/>
  <outline>
    <contour>
      <point x="395" y="91" type="curve" smooth="yes"/>
      <point x="391" y="156"/>
      <point x="388" y="197"/>
      <point x="381" y="262" type="curve" smooth="yes"/>
      <point x="376" y="309"/>
      <point x="345" y="352"/>
      <point x="305" y="376" type="curve" smooth="yes"/>
      <point x="282" y="390"/>
      <point x="219" y="423"/>
      <point x="193" y="423" type="curve" smooth="yes"/>
      <point x="189" y="423"/>
      <point x="184" y="420"/>
      <point x="183" y="414" type="curve" smooth="yes"/>
      <point x="181" y="406"/>
      <point x="179" y="394"/>
      <point x="179" y="382" type="curve" smooth="yes"/>
      <point x="179" y="350"/>
      <point x="199" y="325"/>
      <point x="228" y="309" type="curve" smooth="yes"/>
      <point x="249" y="298"/>
      <point x="256" y="293"/>
      <point x="256" y="284" type="curve" smooth="yes"/>
      <point x="256" y="280"/>
      <point x="252" y="270"/>
      <point x="251" y="267" type="curve" smooth="yes"/>
      <point x="238" y="237"/>
      <point x="209" y="191"/>
      <point x="193" y="166" type="curve" smooth="yes"/>
      <point x="190" y="162"/>
      <point x="185" y="160"/>
      <point x="182" y="160" type="curve" smooth="yes"/>
      <point x="174" y="160"/>
      <point x="155" y="169"/>
      <point x="130" y="189" type="curve" smooth="yes"/>
      <point x="92" y="219"/>
      <point x="57" y="268"/>
      <point x="57" y="337" type="curve" smooth="yes"/>
      <point x="57" y="390"/>
      <point x="73" y="439"/>
      <point x="108" y="486" type="curve" smooth="yes"/>
      <point x="131" y="516"/>
      <point x="174" y="566"/>
      <point x="198" y="586" type="curve" smooth="yes"/>
      <point x="210" y="597"/>
      <point x="218" y="602"/>
      <point x="228" y="602" type="curve" smooth="yes"/>
      <point x="283" y="602"/>
      <point x="374" y="552"/>
      <point x="417" y="516" type="curve" smooth="yes"/>
      <point x="461" y="479"/>
      <point x="476" y="447"/>
      <point x="488" y="365" type="curve" smooth="yes"/>
      <point x="494" y="319"/>
      <point x="499" y="212"/>
      <point x="501" y="181" type="curve" smooth="yes"/>
      <point x="505" y="103"/>
      <point x="507" y="19"/>
      <point x="507" y="-58" type="curve" smooth="yes"/>
      <point x="507" y="-70"/>
      <point x="507" y="-102"/>
      <point x="498" y="-119" type="curve" smooth="yes"/>
      <point x="484" y="-145"/>
      <point x="471" y="-174"/>
      <point x="442" y="-216" type="curve" smooth="yes"/>
      <point x="435" y="-226"/>
      <point x="430" y="-230"/>
      <point x="423" y="-230" type="curve" smooth="yes"/>
      <point x="416" y="-230"/>
      <point x="413" y="-226"/>
      <point x="412" y="-213" type="curve" smooth="yes"/>
      <point x="406" y="-144"/>
      <point x="397" y="56"/>
    </contour>
  </outline>
</glyph>
<glyph name="finaltsadihebrew" format="1">
  <advance width="567"/>
  <unicode hex="05E5"/>
  <outline>
    <contour>
      <point x="305" y="159" type="curve" smooth="yes"/>
      <point x="246" y="266"/>
      <point x="145" y="387"/>
      <point x="71" y="443" type="curve" smooth="yes"/>
      <point x="58" y="453"/>
      <point x="51" y="457"/>
      <point x="51" y="466" type="curve" smooth="yes"/>
      <point x="51" y="469"/>
      <point x="53" y="477"/>
      <point x="57" y="484" type="curve" smooth="yes"/>
      <point x="80" y="525"/>
      <point x="99" y="555"/>
      <point x="125" y="591" type="curve" smooth="yes"/>
      <point x="132" y="600"/>
      <point x="137" y="603"/>
      <point x="142" y="603" type="curve" smooth="yes"/>
      <point x="147" y="603"/>
      <point x="152" y="598"/>
      <point x="156" y="594" type="curve" smooth="yes"/>
      <point x="253" y="497"/>
      <point x="316" y="412"/>
      <point x="375" y="308" type="curve" smooth="yes"/>
      <point x="378" y="303"/>
      <point x="380" y="299"/>
      <point x="383" y="299" type="curve" smooth="yes"/>
      <point x="388" y="299"/>
      <point x="397" y="320"/>
      <point x="397" y="345" type="curve" smooth="yes"/>
      <point x="397" y="384"/>
      <point x="380" y="419"/>
      <point x="367" y="440" type="curve" smooth="yes"/>
      <point x="366" y="442"/>
      <point x="361" y="447"/>
      <point x="361" y="456" type="curve" smooth="yes"/>
      <point x="361" y="460"/>
      <point x="362" y="465"/>
      <point x="365" y="472" type="curve" smooth="yes"/>
      <point x="374" y="493"/>
      <point x="428" y="570"/>
      <point x="452" y="595" type="curve" smooth="yes"/>
      <point x="458" y="601"/>
      <point x="461" y="603"/>
      <point x="467" y="603" type="curve" smooth="yes"/>
      <point x="474" y="603"/>
      <point x="479" y="598"/>
      <point x="484" y="586" type="curve" smooth="yes"/>
      <point x="499" y="552"/>
      <point x="514" y="510"/>
      <point x="514" y="456" type="curve" smooth="yes"/>
      <point x="514" y="376"/>
      <point x="465" y="316"/>
      <point x="424" y="255" type="curve" smooth="yes"/>
      <point x="420" y="249"/>
      <point x="415" y="244"/>
      <point x="415" y="240" type="curve" smooth="yes"/>
      <point x="415" y="235"/>
      <point x="416" y="232"/>
      <point x="417" y="230" type="curve" smooth="yes"/>
      <point x="453" y="163"/>
      <point x="491" y="43"/>
      <point x="518" y="-45" type="curve" smooth="yes"/>
      <point x="522" y="-58"/>
      <point x="527" y="-75"/>
      <point x="527" y="-84" type="curve" smooth="yes"/>
      <point x="527" y="-92"/>
      <point x="526" y="-98"/>
      <point x="523" y="-106" type="curve" smooth="yes"/>
      <point x="511" y="-137"/>
      <point x="492" y="-182"/>
      <point x="473" y="-216" type="curve" smooth="yes"/>
      <point x="468" y="-225"/>
      <point x="465" y="-230"/>
      <point x="459" y="-230" type="curve" smooth="yes"/>
      <point x="451" y="-230"/>
      <point x="448" y="-226"/>
      <point x="444" y="-209" type="curve" smooth="yes"/>
      <point x="415" y="-82"/>
      <point x="360" y="60"/>
    </contour>
  </outline>
</glyph>
<glyph name="reshhebrew" format="1">
  <advance width="567"/>
  <unicode hex="05E8"/>
  <outline>
    <contour>
      <point x="358" y="250" type="curve" smooth="yes"/>
      <point x="344" y="329"/>
      <point x="292" y="383"/>
      <point x="210" y="383" type="curve" smooth="yes"/>
      <point x="60" y="383" type="line"/>
      <point x="48" y="383"/>
      <point x="39" y="389"/>
      <point x="39" y="397" type="curve" smooth="yes"/>
      <point x="39" y="436"/>
      <point x="98" y="552"/>
      <point x="138" y="593" type="curve" smooth="yes"/>
      <point x="141" y="596"/>
      <point x="147" y="603"/>
      <point x="153" y="603" type="curve" smooth="yes"/>
      <point x="160" y="603"/>
      <point x="165" y="601"/>
      <point x="167" y="592" type="curve" smooth="yes"/>
      <point x="172" y="564"/>
      <point x="182" y="552"/>
      <point x="194" y="552" type="curve" smooth="yes"/>
      <point x="302" y="552" type="line"/>
      <point x="373" y="552"/>
      <point x="432" y="509"/>
      <point x="455" y="451" type="curve" smooth="yes"/>
      <point x="480" y="385"/>
      <point x="485" y="252"/>
      <point x="485" y="208" type="curve" smooth="yes"/>
      <point x="485" y="152"/>
      <point x="483" y="135"/>
      <point x="481" y="127" type="curve" smooth="yes"/>
      <point x="470" y="89"/>
      <point x="439" y="32"/>
      <point x="408" y="-13" type="curve" smooth="yes"/>
      <point x="401" y="-23"/>
      <point x="397" y="-26"/>
      <point x="390" y="-26" type="curve" smooth="yes"/>
      <point x="382" y="-26"/>
      <point x="375" y="-17"/>
      <point x="374" y="9" type="curve" smooth="yes"/>
      <point x="370" y="99"/>
      <point x="370" y="182"/>
    </contour>
  </outline>
</glyph>
<glyph name="tavhebrew" format="1">
  <advance width="726"/>
  <unicode hex="05EA"/>
  <outline>
    <contour>
      <point x="41" y="27" type="curve" smooth="yes"/>
      <point x="51" y="68"/>
      <point x="75" y="129"/>
      <point x="94" y="154" type="curve" smooth="yes"/>
      <point x="100" y="162"/>
      <point x="108" y="163"/>
      <point x="114" y="163" type="curve" smooth="yes"/>
      <point x="181" y="163" type="line"/>
      <point x="192" y="163"/>
      <point x="197" y="170"/>
      <point x="197" y="177" type="curve" smooth="yes"/>
      <point x="197" y="185"/>
      <point x="168" y="299"/>
      <point x="144" y="362" type="curve" smooth="yes"/>
      <point x="137" y="381"/>
      <point x="117" y="383"/>
      <point x="104" y="383" type="curve" smooth="yes"/>
      <point x="66" y="383" type="line"/>
      <point x="58" y="383"/>
      <point x="45" y="389"/>
      <point x="45" y="405" type="curve" smooth="yes"/>
      <point x="45" y="408"/>
      <point x="47" y="415"/>
      <point x="51" y="426" type="curve" smooth="yes"/>
      <point x="77" y="493"/>
      <point x="105" y="540"/>
      <point x="139" y="587" type="curve" smooth="yes"/>
      <point x="145" y="595"/>
      <point x="153" y="602"/>
      <point x="165" y="602" type="curve" smooth="yes"/>
      <point x="177" y="602"/>
      <point x="184" y="590"/>
      <point x="186" y="584" type="curve" smooth="yes"/>
      <point x="195" y="559"/>
      <point x="203" y="551"/>
      <point x="219" y="551" type="curve" smooth="yes"/>
      <point x="507" y="551" type="line"/>
      <point x="551" y="551"/>
      <point x="579" y="522"/>
      <point x="594" y="499" type="curve" smooth="yes"/>
      <point x="607" y="480"/>
      <point x="610" y="449"/>
      <point x="614" y="410" type="curve" smooth="yes"/>
      <point x="622" y="332"/>
      <point x="627" y="251"/>
      <point x="627" y="172" type="curve" smooth="yes"/>
      <point x="627" y="122"/>
      <point x="626" y="111"/>
      <point x="617" y="93" type="curve" smooth="yes"/>
      <point x="606" y="71"/>
      <point x="575" y="22"/>
      <point x="545" y="-18" type="curve" smooth="yes"/>
      <point x="542" y="-22"/>
      <point x="537" y="-27"/>
      <point x="529" y="-27" type="curve" smooth="yes"/>
      <point x="521" y="-27"/>
      <point x="519" y="-18"/>
      <point x="519" y="-7" type="curve" smooth="yes"/>
      <point x="519" y="77"/>
      <point x="505" y="255"/>
      <point x="489" y="339" type="curve" smooth="yes"/>
      <point x="483" y="373"/>
      <point x="469" y="383"/>
      <point x="435" y="383" type="curve" smooth="yes"/>
      <point x="288" y="383" type="line"/>
      <point x="279" y="383"/>
      <point x="275" y="378"/>
      <point x="275" y="374" type="curve"/>
      <point x="279" y="358" type="line" smooth="yes"/>
      <point x="291" y="309"/>
      <point x="315" y="218"/>
      <point x="315" y="189" type="curve" smooth="yes"/>
      <point x="315" y="169"/>
      <point x="311" y="153"/>
      <point x="307" y="137" type="curve" smooth="yes"/>
      <point x="300" y="107"/>
      <point x="280" y="54"/>
      <point x="258" y="12" type="curve" smooth="yes"/>
      <point x="253" y="3"/>
      <point x="247" y="-1"/>
      <point x="235" y="-1" type="curve" smooth="yes"/>
      <point x="59" y="-1" type="line"/>
      <point x="44" y="-1"/>
      <point x="39" y="6"/>
      <point x="39" y="16" type="curve" smooth="yes"/>
      <point x="39" y="19"/>
      <point x="40" y="23"/>
    </contour>
  </outline>
</glyph>
<glyph name="quotedblleft" format="1">
  <advance width="562"/>
  <unicode hex="201C"/>
  <outline>
    <contour>
      <point x="483" y="592" type="curve" smooth="yes"/>
      <point x="469" y="553"/>
      <point x="443" y="489"/>
      <point x="435" y="447" type="curve" smooth="yes"/>
      <point x="429" y="413"/>
      <point x="427" y="383"/>
      <point x="427" y="365" type="curve" smooth="yes"/>
      <point x="427" y="355"/>
      <point x="423" y="349"/>
      <point x="418" y="342" type="curve" smooth="yes"/>
      <point x="404" y="323"/>
      <point x="358" y="280"/>
      <point x="330" y="263" type="curve" smooth="yes"/>
      <point x="323" y="259"/>
      <point x="315" y="255"/>
      <point x="306" y="255" type="curve" smooth="yes"/>
      <point x="296" y="256"/>
      <point x="281" y="288"/>
      <point x="281" y="331" type="curve" smooth="yes"/>
      <point x="281" y="385"/>
      <point x="296" y="432"/>
      <point x="339" y="506" type="curve" smooth="yes"/>
      <point x="365" y="550"/>
      <point x="408" y="600"/>
      <point x="446" y="627" type="curve" smooth="yes"/>
      <point x="458" y="636"/>
      <point x="464" y="639"/>
      <point x="480" y="639" type="curve" smooth="yes"/>
      <point x="487" y="639"/>
      <point x="493" y="632"/>
      <point x="493" y="625" type="curve" smooth="yes"/>
      <point x="493" y="617"/>
      <point x="487" y="603"/>
    </contour>
    <contour>
      <point x="262" y="592" type="curve" smooth="yes"/>
      <point x="248" y="553"/>
      <point x="222" y="489"/>
      <point x="214" y="447" type="curve" smooth="yes"/>
      <point x="208" y="413"/>
      <point x="206" y="383"/>
      <point x="206" y="365" type="curve" smooth="yes"/>
      <point x="206" y="355"/>
      <point x="202" y="349"/>
      <point x="197" y="342" type="curve" smooth="yes"/>
      <point x="183" y="323"/>
      <point x="137" y="280"/>
      <point x="109" y="263" type="curve" smooth="yes"/>
      <point x="102" y="259"/>
      <point x="94" y="255"/>
      <point x="85" y="255" type="curve" smooth="yes"/>
      <point x="75" y="256"/>
      <point x="60" y="288"/>
      <point x="60" y="331" type="curve" smooth="yes"/>
      <point x="60" y="385"/>
      <point x="75" y="432"/>
      <point x="118" y="506" type="curve" smooth="yes"/>
      <point x="144" y="550"/>
      <point x="187" y="600"/>
      <point x="225" y="627" type="curve" smooth="yes"/>
      <point x="237" y="636"/>
      <point x="243" y="639"/>
      <point x="259" y="639" type="curve" smooth="yes"/>
      <point x="266" y="639"/>
      <point x="272" y="632"/>
      <point x="272" y="625" type="curve" smooth="yes"/>
      <point x="272" y="617"/>
      <point x="266" y="603"/>
    </contour>
  </outline>
</glyph>
<glyph name="ellipsis" format="1">
  <advance width="1015"/>
  <unicode hex="2026"/>
  <outline>
    <contour>
      <point x="414" y="75" type="curve" smooth="yes"/>
      <point x="411" y="79"/>
      <point x="408" y="84"/>
      <point x="408" y="90" type="curve" smooth="yes"/>
      <point x="408" y="95"/>
      <point x="409" y="101"/>
      <point x="415" y="108" type="curve" smooth="yes"/>
      <point x="428" y="124"/>
      <point x="479" y="179"/>
      <point x="492" y="191" type="curve" smooth="yes"/>
      <point x="497" y="196"/>
      <point x="504" y="201"/>
      <point x="511" y="201" type="curve" smooth="yes"/>
      <point x="517" y="201"/>
      <point x="521" y="198"/>
      <point x="527" y="192" type="curve" smooth="yes"/>
      <point x="554" y="163"/>
      <point x="588" y="137"/>
      <point x="619" y="119" type="curve" smooth="yes"/>
      <point x="626" y="115"/>
      <point x="630" y="109"/>
      <point x="630" y="101" type="curve" smooth="yes"/>
      <point x="630" y="95"/>
      <point x="626" y="86"/>
      <point x="623" y="82" type="curve" smooth="yes"/>
      <point x="596" y="44"/>
      <point x="573" y="17"/>
      <point x="548" y="-8" type="curve" smooth="yes"/>
      <point x="544" y="-12"/>
      <point x="538" y="-16"/>
      <point x="532" y="-16" type="curve" smooth="yes"/>
      <point x="526" y="-16"/>
      <point x="521" y="-15"/>
      <point x="516" y="-12" type="curve" smooth="yes"/>
      <point x="475" y="9"/>
      <point x="439" y="41"/>
    </contour>
    <contour>
      <point x="710" y="75" type="curve" smooth="yes"/>
      <point x="707" y="79"/>
      <point x="704" y="84"/>
      <point x="704" y="90" type="curve" smooth="yes"/>
      <point x="704" y="95"/>
      <point x="705" y="101"/>
      <point x="711" y="108" type="curve" smooth="yes"/>
      <point x="724" y="124"/>
      <point x="775" y="179"/>
      <point x="788" y="191" type="curve" smooth="yes"/>
      <point x="793" y="196"/>
      <point x="800" y="201"/>
      <point x="807" y="201" type="curve" smooth="yes"/>
      <point x="813" y="201"/>
      <point x="817" y="198"/>
      <point x="823" y="192" type="curve" smooth="yes"/>
      <point x="850" y="163"/>
      <point x="884" y="137"/>
      <point x="915" y="119" type="curve" smooth="yes"/>
      <point x="922" y="115"/>
      <point x="926" y="109"/>
      <point x="926" y="101" type="curve" smooth="yes"/>
      <point x="926" y="95"/>
      <point x="922" y="86"/>
      <point x="919" y="82" type="curve" smooth="yes"/>
      <point x="892" y="44"/>
      <point x="869" y="17"/>
      <point x="844" y="-8" type="curve" smooth="yes"/>
      <point x="840" y="-12"/>
      <point x="834" y="-16"/>
      <point x="828" y="-16" type="curve" smooth="yes"/>
      <point x="822" y="-16"/>
      <point x="817" y="-15"/>
      <point x="812" y="-12" type="curve" smooth="yes"/>
      <point x="771" y="9"/>
      <point x="735" y="41"/>
    </contour>
    <contour>
      <point x="119" y="75" type="curve" smooth="yes"/>
      <point x="116" y="79"/>
      <point x="113" y="84"/>
      <point x="113" y="90" type="curve" smooth="yes"/>
      <point x="113" y="95"/>
      <point x="114" y="101"/>
      <point x="120" y="108" type="curve" smooth="yes"/>
      <point x="133" y="124"/>
      <point x="184" y="179"/>
      <point x="197" y="191" type="curve" smooth="yes"/>
      <point x="202" y="196"/>
      <point x="209" y="201"/>
      <point x="216" y="201" type="curve" smooth="yes"/>
      <point x="222" y="201"/>
      <point x="226" y="198"/>
      <point x="232" y="192" type="curve" smooth="yes"/>
      <point x="259" y="163"/>
      <point x="293" y="137"/>
      <point x="324" y="119" type="curve" smooth="yes"/>
      <point x="331" y="115"/>
      <point x="335" y="109"/>
      <point x="335" y="101" type="curve" smooth="yes"/>
      <point x="335" y="95"/>
      <point x="331" y="86"/>
      <point x="328" y="82" type="curve" smooth="yes"/>
      <point x="301" y="44"/>
      <point x="278" y="17"/>
      <point x="253" y="-8" type="curve" smooth="yes"/>
      <point x="249" y="-12"/>
      <point x="243" y="-16"/>
      <point x="237" y="-16" type="curve" smooth="yes"/>
      <point x="231" y="-16"/>
      <point x="226" y="-15"/>
      <point x="221" y="-12" type="curve" smooth="yes"/>
      <point x="180" y="9"/>
      <point x="144" y="41"/>
    </contour>
  </outline>
</glyph>
<glyph name="guilsinglleft" format="1">
  <advance width="231"/>
  <unicode hex="2039"/>
  <outline>
    <contour>
      <point x="74" y="368" type="curve" smooth="yes"/>
      <point x="58" y="348"/>
      <point x="25" y="299"/>
      <point x="13" y="274" type="curve" smooth="yes"/>
      <point x="11" y="270"/>
      <point x="9" y="264"/>
      <point x="9" y="259" type="curve" smooth="yes"/>
      <point x="9" y="253"/>
      <point x="11" y="247"/>
      <point x="18" y="236" type="curve" smooth="yes"/>
      <point x="33" y="211"/>
      <point x="88" y="151"/>
      <point x="115" y="128" type="curve" smooth="yes"/>
      <point x="120" y="124"/>
      <point x="123" y="123"/>
      <point x="125" y="123" type="curve" smooth="yes"/>
      <point x="128" y="123"/>
      <point x="132" y="125"/>
      <point x="135" y="128" type="curve" smooth="yes"/>
      <point x="152" y="147"/>
      <point x="178" y="186"/>
      <point x="185" y="198" type="curve"/>
      <point x="185" y="198"/>
      <point x="191" y="209"/>
      <point x="191" y="214" type="curve" smooth="yes"/>
      <point x="191" y="217"/>
      <point x="190" y="222"/>
      <point x="187" y="225" type="curve" smooth="yes"/>
      <point x="139" y="279" type="line" smooth="yes"/>
      <point x="136" y="282"/>
      <point x="134" y="288"/>
      <point x="134" y="291" type="curve" smooth="yes"/>
      <point x="134" y="294"/>
      <point x="134" y="298"/>
      <point x="137" y="303" type="curve" smooth="yes"/>
      <point x="149" y="327"/>
      <point x="171" y="380"/>
      <point x="183" y="405" type="curve" smooth="yes"/>
      <point x="185" y="409"/>
      <point x="186" y="413"/>
      <point x="186" y="416" type="curve" smooth="yes"/>
      <point x="186" y="420"/>
      <point x="182" y="423"/>
      <point x="177" y="423" type="curve" smooth="yes"/>
      <point x="175" y="423"/>
      <point x="172" y="423"/>
      <point x="168" y="421" type="curve" smooth="yes"/>
      <point x="160" y="418"/>
      <point x="110" y="394"/>
      <point x="105" y="391" type="curve" smooth="yes"/>
      <point x="98" y="387"/>
      <point x="83" y="380"/>
    </contour>
  </outline>
</glyph>
<glyph name="radical" format="1">
  <advance width="762"/>
  <unicode hex="221A"/>
  <outline>
    <contour>
      <point x="537" y="321" type="curve" smooth="yes"/>
      <point x="540" y="318"/>
      <point x="544" y="314"/>
      <point x="547" y="314" type="curve" smooth="yes"/>
      <point x="552" y="314"/>
      <point x="556" y="319"/>
      <point x="556" y="333" type="curve" smooth="yes"/>
      <point x="556" y="365"/>
      <point x="552" y="405"/>
      <point x="541" y="431" type="curve" smooth="yes"/>
      <point x="535" y="445"/>
      <point x="528" y="455"/>
      <point x="528" y="462" type="curve" smooth="yes"/>
      <point x="528" y="467"/>
      <point x="530" y="473"/>
      <point x="533" y="477" type="curve" smooth="yes"/>
      <point x="553" y="509"/>
      <point x="590" y="560"/>
      <point x="629" y="597" type="curve" smooth="yes"/>
      <point x="632" y="600"/>
      <point x="635" y="603"/>
      <point x="640" y="603" type="curve" smooth="yes"/>
      <point x="645" y="603"/>
      <point x="649" y="597"/>
      <point x="652" y="592" type="curve" smooth="yes"/>
      <point x="672" y="558"/>
      <point x="688" y="518"/>
      <point x="688" y="465" type="curve" smooth="yes"/>
      <point x="688" y="422"/>
      <point x="679" y="396"/>
      <point x="665" y="365" type="curve" smooth="yes"/>
      <point x="651" y="333"/>
      <point x="628" y="297"/>
      <point x="604" y="263" type="curve" smooth="yes"/>
      <point x="603" y="261"/>
      <point x="603" y="259"/>
      <point x="603" y="258" type="curve" smooth="yes"/>
      <point x="603" y="255"/>
      <point x="604" y="253"/>
      <point x="606" y="251" type="curve" smooth="yes"/>
      <point x="647" y="209"/>
      <point x="718" y="127"/>
      <point x="721" y="122" type="curve" smooth="yes"/>
      <point x="724" y="118"/>
      <point x="725" y="116"/>
      <point x="725" y="114" type="curve" smooth="yes"/>
      <point x="725" y="109"/>
      <point x="723" y="105"/>
      <point x="721" y="100" type="curve" smooth="yes"/>
      <point x="704" y="57"/>
      <point x="663" y="-10"/>
      <point x="655" y="-19" type="curve" smooth="yes"/>
      <point x="652" y="-22"/>
      <point x="649" y="-25"/>
      <point x="645" y="-25" type="curve" smooth="yes"/>
      <point x="641" y="-25"/>
      <point x="638" y="-22"/>
      <point x="636" y="-20" type="curve" smooth="yes"/>
      <point x="595" y="27"/>
      <point x="532" y="97"/>
      <point x="455" y="173" type="curve" smooth="yes"/>
      <point x="399" y="227"/>
      <point x="365" y="265"/>
      <point x="324" y="293" type="curve" smooth="yes"/>
      <point x="321" y="295"/>
      <point x="318" y="297"/>
      <point x="315" y="297" type="curve" smooth="yes"/>
      <point x="312" y="297"/>
      <point x="309" y="294"/>
      <point x="307" y="288" type="curve" smooth="yes"/>
      <point x="282" y="188"/>
      <point x="265" y="55"/>
      <point x="160" y="9" type="curve" smooth="yes"/>
      <point x="121" y="-8"/>
      <point x="76" y="-17"/>
      <point x="57" y="-17" type="curve" smooth="yes"/>
      <point x="48" y="-17"/>
      <point x="44" y="-12"/>
      <point x="44" y="-2" type="curve" smooth="yes"/>
      <point x="44" y="32"/>
      <point x="75" y="116"/>
      <point x="97" y="145" type="curve" smooth="yes"/>
      <point x="103" y="153"/>
      <point x="106" y="155"/>
      <point x="115" y="157" type="curve" smooth="yes"/>
      <point x="162" y="168"/>
      <point x="162" y="171"/>
      <point x="190" y="191" type="curve" smooth="yes"/>
      <point x="209" y="204"/>
      <point x="211" y="241"/>
      <point x="211" y="309" type="curve" smooth="yes"/>
      <point x="211" y="368"/>
      <point x="123" y="343"/>
      <point x="123" y="459" type="curve" smooth="yes"/>
      <point x="123" y="464"/>
      <point x="122" y="489"/>
      <point x="122" y="504" type="curve" smooth="yes"/>
      <point x="122" y="524"/>
      <point x="121" y="546"/>
      <point x="118" y="564" type="curve" smooth="yes"/>
      <point x="113" y="590"/>
      <point x="107" y="610"/>
      <point x="96" y="629" type="curve" smooth="yes"/>
      <point x="94" y="633"/>
      <point x="93" y="636"/>
      <point x="93" y="640" type="curve" smooth="yes"/>
      <point x="93" y="643"/>
      <point x="94" y="647"/>
      <point x="96" y="651" type="curve" smooth="yes"/>
      <point x="110" y="679"/>
      <point x="162" y="738"/>
      <point x="185" y="760" type="curve" smooth="yes"/>
      <point x="189" y="764"/>
      <point x="193" y="767"/>
      <point x="197" y="767" type="curve" smooth="yes"/>
      <point x="209" y="767"/>
      <point x="220" y="755"/>
      <point x="225" y="738" type="curve" smooth="yes"/>
      <point x="234" y="707"/>
      <point x="232" y="615"/>
      <point x="235" y="590" type="curve" smooth="yes"/>
      <point x="237" y="566"/>
      <point x="268" y="536"/>
      <point x="299" y="519" type="curve" smooth="yes"/>
      <point x="355" y="489"/>
      <point x="498" y="362"/>
    </contour>
  </outline>
</glyph>
<glyph name="eight.001" format="1">
  <advance width="500"/>
  <outline>
    <contour>
      <point x="49" y="143" type="curve" smooth="yes"/>
      <point x="49" y="219"/>
      <point x="113" y="273"/>
      <point x="128" y="284" type="curve" smooth="yes"/>
      <point x="132" y="287"/>
      <point x="133" y="290"/>
      <point x="133" y="291" type="curve" smooth="yes"/>
      <point x="133" y="293"/>
      <point x="129" y="294"/>
      <point x="124" y="297" type="curve" smooth="yes"/>
      <point x="89" y="318"/>
      <point x="59" y="352"/>
      <point x="59" y="411" type="curve" smooth="yes"/>
      <point x="59" y="448"/>
      <point x="78" y="503"/>
      <point x="111" y="543" type="curve" smooth="yes"/>
      <point x="141" y="580"/>
      <point x="189" y="603"/>
      <point x="229" y="603" type="curve" smooth="yes"/>
      <point x="269" y="603"/>
      <point x="315" y="588"/>
      <point x="344" y="569" type="curve" smooth="yes"/>
      <point x="380" y="545"/>
      <point x="402" y="499"/>
      <point x="402" y="463" type="curve" smooth="yes"/>
      <point x="402" y="414"/>
      <point x="383" y="379"/>
      <point x="347" y="343" type="curve" smooth="yes"/>
      <point x="345" y="341"/>
      <point x="341" y="338"/>
      <point x="341" y="336" type="curve" smooth="yes"/>
      <point x="341" y="334"/>
      <point x="343" y="332"/>
      <point x="347" y="330" type="curve" smooth="yes"/>
      <point x="374" y="315"/>
      <point x="400" y="300"/>
      <point x="415" y="285" type="curve" smooth="yes"/>
      <point x="445" y="259"/>
      <point x="448" y="218"/>
      <point x="448" y="199" type="curve" smooth="yes"/>
      <point x="448" y="150"/>
      <point x="418" y="81"/>
      <point x="366" y="32" type="curve" smooth="yes"/>
      <point x="326" y="-5"/>
      <point x="274" y="-18"/>
      <point x="237" y="-18" type="curve" smooth="yes"/>
      <point x="212" y="-18"/>
      <point x="163" y="-13"/>
      <point x="128" y="11" type="curve" smooth="yes"/>
      <point x="89" y="36"/>
      <point x="49" y="89"/>
    </contour>
    <contour>
      <point x="300" y="199" type="curve" smooth="yes"/>
      <point x="284" y="212"/>
      <point x="225" y="243"/>
      <point x="215" y="248" type="curve" smooth="yes"/>
      <point x="213" y="249"/>
      <point x="209" y="252"/>
      <point x="203" y="252" type="curve" smooth="yes"/>
      <point x="195" y="252"/>
      <point x="162" y="231"/>
      <point x="162" y="190" type="curve" smooth="yes"/>
      <point x="162" y="147"/>
      <point x="203" y="114"/>
      <point x="253" y="114" type="curve" smooth="yes"/>
      <point x="293" y="114"/>
      <point x="317" y="130"/>
      <point x="317" y="165" type="curve" smooth="yes"/>
      <point x="317" y="176"/>
      <point x="314" y="186"/>
    </contour>
    <contour>
      <point x="221" y="476" type="curve" smooth="yes"/>
      <point x="191" y="476"/>
      <point x="177" y="456"/>
      <point x="177" y="443" type="curve" smooth="yes"/>
      <point x="177" y="432"/>
      <point x="181" y="423"/>
      <point x="189" y="413" type="curve" smooth="yes"/>
      <point x="201" y="399"/>
      <point x="264" y="369"/>
      <point x="266" y="369" type="curve" smooth="yes"/>
      <point x="269" y="369"/>
      <point x="274" y="374"/>
      <point x="279" y="380" type="curve" smooth="yes"/>
      <point x="287" y="392"/>
      <point x="296" y="406"/>
      <point x="296" y="416" type="curve" smooth="yes"/>
      <point x="296" y="455"/>
      <point x="257" y="476"/>
    </contour>
  </outline>
</glyph>
<glyph name="two.001" format="1">
  <advance width="500"/>
  <outline>
    <contour>
      <point x="130" y="149" type="curve" smooth="yes"/>
      <point x="156" y="194"/>
      <point x="195" y="239"/>
      <point x="213" y="262" type="curve" smooth="yes"/>
      <point x="237" y="294"/>
      <point x="275" y="338"/>
      <point x="275" y="371" type="curve" smooth="yes"/>
      <point x="275" y="427"/>
      <point x="227" y="449"/>
      <point x="197" y="458" type="curve" smooth="yes"/>
      <point x="170" y="465"/>
      <point x="117" y="465"/>
      <point x="102" y="465" type="curve" smooth="yes"/>
      <point x="85" y="465"/>
      <point x="83" y="475"/>
      <point x="83" y="477" type="curve" smooth="yes"/>
      <point x="83" y="481"/>
      <point x="126" y="570"/>
      <point x="145" y="589" type="curve" smooth="yes"/>
      <point x="152" y="598"/>
      <point x="160" y="603"/>
      <point x="171" y="603" type="curve" smooth="yes"/>
      <point x="209" y="603"/>
      <point x="285" y="591"/>
      <point x="311" y="580" type="curve" smooth="yes"/>
      <point x="359" y="559"/>
      <point x="416" y="512"/>
      <point x="416" y="432" type="curve" smooth="yes"/>
      <point x="416" y="376"/>
      <point x="362" y="313"/>
      <point x="312" y="254" type="curve" smooth="yes"/>
      <point x="297" y="236"/>
      <point x="261" y="191"/>
      <point x="261" y="173" type="curve" smooth="yes"/>
      <point x="261" y="161"/>
      <point x="269" y="158"/>
      <point x="281" y="158" type="curve" smooth="yes"/>
      <point x="449" y="158" type="line"/>
      <point x="459" y="158"/>
      <point x="461" y="155"/>
      <point x="461" y="151" type="curve" smooth="yes"/>
      <point x="461" y="125"/>
      <point x="416" y="49"/>
      <point x="392" y="14" type="curve" smooth="yes"/>
      <point x="385" y="5"/>
      <point x="381" y="1"/>
      <point x="371" y="1" type="curve" smooth="yes"/>
      <point x="99" y="1" type="line"/>
      <point x="86" y="1"/>
      <point x="79" y="3"/>
      <point x="79" y="13" type="curve" smooth="yes"/>
      <point x="79" y="47"/>
      <point x="105" y="106"/>
    </contour>
  </outline>
</glyph>
<glyph name="zero.001" format="1">
  <advance width="500"/>
  <outline>
    <contour>
      <point x="34" y="298" type="curve" smooth="yes"/>
      <point x="34" y="384"/>
      <point x="61" y="480"/>
      <point x="114" y="543" type="curve" smooth="yes"/>
      <point x="151" y="587"/>
      <point x="195" y="603"/>
      <point x="242" y="603" type="curve" smooth="yes"/>
      <point x="401" y="603"/>
      <point x="465" y="439"/>
      <point x="465" y="292" type="curve" smooth="yes"/>
      <point x="465" y="216"/>
      <point x="437" y="114"/>
      <point x="383" y="52" type="curve" smooth="yes"/>
      <point x="338" y="1"/>
      <point x="293" y="-18"/>
      <point x="246" y="-18" type="curve" smooth="yes"/>
      <point x="193" y="-18"/>
      <point x="140" y="1"/>
      <point x="104" y="48" type="curve" smooth="yes"/>
      <point x="63" y="101"/>
      <point x="34" y="171"/>
    </contour>
    <contour>
      <point x="274" y="116" type="curve" smooth="yes"/>
      <point x="292" y="116"/>
      <point x="309" y="120"/>
      <point x="318" y="135" type="curve" smooth="yes"/>
      <point x="328" y="152"/>
      <point x="343" y="182"/>
      <point x="343" y="240" type="curve" smooth="yes"/>
      <point x="343" y="279"/>
      <point x="342" y="319"/>
      <point x="324" y="383" type="curve" smooth="yes"/>
      <point x="317" y="408"/>
      <point x="294" y="443"/>
      <point x="272" y="456" type="curve" smooth="yes"/>
      <point x="266" y="460"/>
      <point x="242" y="472"/>
      <point x="210" y="472" type="curve" smooth="yes"/>
      <point x="193" y="472"/>
      <point x="178" y="459"/>
      <point x="171" y="434" type="curve" smooth="yes"/>
      <point x="161" y="400"/>
      <point x="155" y="369"/>
      <point x="155" y="335" type="curve" smooth="yes"/>
      <point x="155" y="265"/>
      <point x="167" y="194"/>
      <point x="185" y="163" type="curve" smooth="yes"/>
      <point x="204" y="130"/>
      <point x="242" y="116"/>
    </contour>
  </outline>
</glyph>
